#N canvas 435 299 1366 697 10;
#N canvas 2 78 450 300 midi_nrpn_in 0;
#X obj 52 37 ctlin 99;
#X obj 120 37 ctlin 98;
#X obj 189 37 ctlin 6;
#X obj 257 37 ctlin 38;
#X obj 52 59 << 7;
#X obj 189 59 << 7;
#X obj 120 59 t b f;
#X obj 86 126 +;
#X obj 257 124 +;
#X obj 138 195 pack;
#X obj 138 174 swap;
#X obj 210 98 f;
#X obj 257 59 t b f;
#X obj 47 104 f;
#X obj 138 217 outlet;
#X connect 0 0 4 0;
#X connect 1 0 6 0;
#X connect 2 0 5 0;
#X connect 3 0 12 0;
#X connect 4 0 13 1;
#X connect 5 0 11 1;
#X connect 6 0 13 0;
#X connect 6 1 7 1;
#X connect 7 0 10 1;
#X connect 8 0 10 0;
#X connect 9 0 14 0;
#X connect 10 0 9 0;
#X connect 10 1 9 1;
#X connect 11 0 8 0;
#X connect 12 0 11 0;
#X connect 12 1 8 1;
#X connect 13 0 7 0;
#X restore 200 64 pd midi_nrpn_in;
#X obj 202 89 route 1300 1301 1302 1303 1304 1305 1306 1307 1308 1309
1310 1311 1312, f 71;
#X obj 142 155 / 1023;
#X obj 213 155 / 1023;
#X obj 284 155 / 1023;
#X obj 355 155 / 1023;
#X obj 426 154 / 1023;
#X obj 497 155 / 1023;
#X obj 568 155 / 1023;
#X obj 639 155 / 1023;
#X obj 709 155 / 1023;
#X obj 780 155 / 1023;
#X obj 851 155 / 1023;
#X obj 922 155 / 1023;
#X obj 993 155 / 1023;
#X obj 142 178 sig~;
#X obj 213 177 sig~;
#X obj 284 178 sig~;
#X obj 355 178 sig~;
#X obj 426 178 sig~;
#X obj 497 178 sig~;
#X obj 568 178 sig~;
#X obj 639 178 sig~;
#X obj 709 178 sig~;
#X obj 780 178 sig~;
#X obj 851 178 sig~;
#X obj 922 178 sig~;
#X obj 993 178 sig~;
#X obj 142 208 outlet~;
#X obj 213 208 outlet~;
#X obj 284 208 outlet~;
#X obj 355 208 outlet~;
#X obj 426 208 outlet~;
#X obj 497 208 outlet~;
#X obj 568 208 outlet~;
#X obj 639 208 outlet~;
#X obj 709 208 outlet~;
#X obj 780 208 outlet~;
#X obj 851 208 outlet~;
#X obj 922 208 outlet~;
#X obj 993 208 outlet~;
#X connect 0 0 1 0;
#X connect 1 0 2 0;
#X connect 1 1 3 0;
#X connect 1 2 4 0;
#X connect 1 3 5 0;
#X connect 1 4 6 0;
#X connect 1 5 7 0;
#X connect 1 6 8 0;
#X connect 1 7 9 0;
#X connect 1 8 10 0;
#X connect 1 9 11 0;
#X connect 1 10 12 0;
#X connect 1 11 13 0;
#X connect 1 12 14 0;
#X connect 2 0 15 0;
#X connect 3 0 16 0;
#X connect 4 0 17 0;
#X connect 5 0 18 0;
#X connect 6 0 19 0;
#X connect 7 0 20 0;
#X connect 8 0 21 0;
#X connect 9 0 22 0;
#X connect 10 0 23 0;
#X connect 11 0 24 0;
#X connect 12 0 25 0;
#X connect 13 0 26 0;
#X connect 14 0 27 0;
#X connect 15 0 28 0;
#X connect 16 0 29 0;
#X connect 17 0 30 0;
#X connect 18 0 31 0;
#X connect 19 0 32 0;
#X connect 20 0 33 0;
#X connect 21 0 34 0;
#X connect 22 0 35 0;
#X connect 23 0 36 0;
#X connect 24 0 37 0;
#X connect 25 0 38 0;
#X connect 26 0 39 0;
#X connect 27 0 40 0;
