#N canvas 438 302 1366 697 10;
#X obj 142 133 bendin 2;
#X obj 213 133 bendin 3;
#X obj 284 133 bendin 4;
#X obj 355 133 bendin 5;
#X obj 426 133 bendin 6;
#X obj 497 133 bendin 7;
#X obj 568 133 bendin 8;
#X obj 639 133 bendin 9;
#X obj 710 132 bendin 10;
#X obj 780 133 bendin 11;
#X obj 851 133 bendin 12;
#X obj 922 133 bendin 13;
#X obj 993 133 bendin 14;
#X obj 568 155 / 16383;
#X obj 639 155 / 16383;
#X obj 709 155 / 16383;
#X obj 780 155 / 16383;
#X obj 851 155 / 16383;
#X obj 922 155 / 16383;
#X obj 993 155 / 16383;
#X obj 142 155 / 16383;
#X obj 213 155 / 16383;
#X obj 284 155 / 16383;
#X obj 355 155 / 16383;
#X obj 426 154 / 16383;
#X obj 497 155 / 16383;
#X obj 142 178 sig~;
#X obj 213 178 sig~;
#X obj 213 201 outlet~;
#X obj 142 201 outlet~;
#X obj 284 178 sig~;
#X obj 284 201 outlet~;
#X obj 355 178 sig~;
#X obj 355 201 outlet~;
#X obj 426 178 sig~;
#X obj 426 201 outlet~;
#X obj 497 178 sig~;
#X obj 497 201 outlet~;
#X obj 568 178 sig~;
#X obj 568 201 outlet~;
#X obj 639 178 sig~;
#X obj 639 201 outlet~;
#X obj 709 178 sig~;
#X obj 709 201 outlet~;
#X obj 780 178 sig~;
#X obj 780 201 outlet~;
#X obj 851 178 sig~;
#X obj 851 201 outlet~;
#X obj 922 178 sig~;
#X obj 922 201 outlet~;
#X obj 993 178 sig~;
#X obj 993 201 outlet~;
#X connect 0 0 20 0;
#X connect 1 0 21 0;
#X connect 2 0 22 0;
#X connect 3 0 23 0;
#X connect 4 0 24 0;
#X connect 5 0 25 0;
#X connect 6 0 13 0;
#X connect 7 0 14 0;
#X connect 8 0 15 0;
#X connect 9 0 16 0;
#X connect 10 0 17 0;
#X connect 11 0 18 0;
#X connect 12 0 19 0;
#X connect 13 0 38 0;
#X connect 14 0 40 0;
#X connect 15 0 42 0;
#X connect 16 0 44 0;
#X connect 17 0 46 0;
#X connect 18 0 48 0;
#X connect 19 0 50 0;
#X connect 20 0 26 0;
#X connect 21 0 27 0;
#X connect 22 0 30 0;
#X connect 23 0 32 0;
#X connect 24 0 34 0;
#X connect 25 0 36 0;
#X connect 26 0 29 0;
#X connect 27 0 28 0;
#X connect 30 0 31 0;
#X connect 32 0 33 0;
#X connect 34 0 35 0;
#X connect 36 0 37 0;
#X connect 38 0 39 0;
#X connect 40 0 41 0;
#X connect 42 0 43 0;
#X connect 44 0 45 0;
#X connect 46 0 47 0;
#X connect 48 0 49 0;
#X connect 50 0 51 0;
